# xmcd
#
# Track frame offsets:
#	150
#	5595
#	23046
#	44210
#	63003
#	64632
#	85002
#	106724
#	126107
#	132902
#	153764
#	174877
#	191646
#	193188
#	214277
#	224479
#
# Disc length: 3292 seconds
#
# Revision: 1
# Processed by: cddbd v1.5.1PL0 Copyright (c) Steve Scherf et al.
# Submitted via: CDex 1.50Beta5
#
DISCID=db0cda10
DTITLE=DOUBLE - VISION
DYEAR=2002
DGENRE=Rock
TTITLE0=D・O・U・B・L・E〜intro
TTITLE1=Don’t Rush
TTITLE2=Should Have Tried
TTITLE3=Party Time
TTITLE4=Just Who’s That〜interlude
TTITLE5=Who’s That Girl
TTITLE6=Strange Things
TTITLE7=ABC
TTITLE8=Love〜interlude
TTITLE9=You Got To
TTITLE10=Let’s Get Together DOUBLE and HIRO from F.O.H
TTITLE11=Kissing You
TTITLE12=Midnight All Alone〜interlude
TTITLE13=Driving All Night
TTITLE14=Going On〜Outro
TTITLE15=You Got To PART2(Bonus Track)
EXTD=
EXTT0=
EXTT1=
EXTT2=
EXTT3=
EXTT4=
EXTT5=
EXTT6=
EXTT7=
EXTT8=
EXTT9=
EXTT10=
EXTT11=
EXTT12=
EXTT13=
EXTT14=
EXTT15=
PLAYORDER=
